<?xml version="1.0" encoding="UTF-8" standalone="no"?>
<!-- Created with Inkscape (http://www.inkscape.org/) -->

<svg
   width="134.82524mm"
   height="59.266418mm"
   viewBox="0 0 134.82524 59.266418"
   version="1.1"
   id="svg1"
   inkscape:version="1.4 (e7c3feb1, 2024-10-09)"
   sodipodi:docname="LogoUniversité Le Havre Normandie.svg"
   xmlns:inkscape="http://www.inkscape.org/namespaces/inkscape"
   xmlns:sodipodi="http://sodipodi.sourceforge.net/DTD/sodipodi-0.dtd"
   xmlns="http://www.w3.org/2000/svg"
   xmlns:svg="http://www.w3.org/2000/svg">
  <sodipodi:namedview
     id="namedview1"
     pagecolor="#ffffff"
     bordercolor="#000000"
     borderopacity="0.25"
     inkscape:showpageshadow="2"
     inkscape:pageopacity="0.0"
     inkscape:pagecheckerboard="0"
     inkscape:deskcolor="#d1d1d1"
     inkscape:document-units="mm"
     inkscape:zoom="1"
     inkscape:cx="275.5"
     inkscape:cy="131.5"
     inkscape:current-layer="layer1" />
  <defs
     id="defs1">
    <clipPath
       clipPathUnits="userSpaceOnUse"
       id="clipPath126">
      <path
         d="M 28.346,138.898 H 566.929 V 306.897 H 28.346 Z"
         transform="translate(-118.7637,-256.89741)"
         id="path126" />
    </clipPath>
    <clipPath
       clipPathUnits="userSpaceOnUse"
       id="clipPath128">
      <path
         d="M 28.346,138.898 H 566.929 V 306.897 H 28.346 Z"
         transform="translate(-132.01971,-253.73871)"
         id="path128" />
    </clipPath>
    <clipPath
       clipPathUnits="userSpaceOnUse"
       id="clipPath130">
      <path
         d="M 28.346,138.898 H 566.929 V 306.897 H 28.346 Z"
         id="path130" />
    </clipPath>
    <clipPath
       clipPathUnits="userSpaceOnUse"
       id="clipPath132">
      <path
         d="M 28.346,138.898 H 566.929 V 306.897 H 28.346 Z"
         transform="translate(-151.3744,-253.73871)"
         id="path132" />
    </clipPath>
    <clipPath
       clipPathUnits="userSpaceOnUse"
       id="clipPath134">
      <path
         d="M 28.346,138.898 H 566.929 V 306.897 H 28.346 Z"
         transform="translate(-157.6959,-253.73871)"
         id="path134" />
    </clipPath>
    <clipPath
       clipPathUnits="userSpaceOnUse"
       id="clipPath136">
      <path
         d="M 28.346,138.898 H 566.929 V 306.897 H 28.346 Z"
         transform="translate(-179.02191,-266.26161)"
         id="path136" />
    </clipPath>
    <clipPath
       clipPathUnits="userSpaceOnUse"
       id="clipPath138">
      <path
         d="M 28.346,138.898 H 566.929 V 306.897 H 28.346 Z"
         transform="translate(-196.22301,-254.94511)"
         id="path138" />
    </clipPath>
    <clipPath
       clipPathUnits="userSpaceOnUse"
       id="clipPath140">
      <path
         d="M 28.346,138.898 H 566.929 V 306.897 H 28.346 Z"
         id="path140" />
    </clipPath>
    <clipPath
       clipPathUnits="userSpaceOnUse"
       id="clipPath142">
      <path
         d="M 28.346,138.898 H 566.929 V 306.897 H 28.346 Z"
         transform="translate(-212.5069,-266.61331)"
         id="path142" />
    </clipPath>
    <clipPath
       clipPathUnits="userSpaceOnUse"
       id="clipPath144">
      <path
         d="M 28.346,138.898 H 566.929 V 306.897 H 28.346 Z"
         transform="translate(-224.83921,-270.73611)"
         id="path144" />
    </clipPath>
    <clipPath
       clipPathUnits="userSpaceOnUse"
       id="clipPath146">
      <path
         d="M 28.346,138.898 H 566.929 V 306.897 H 28.346 Z"
         transform="translate(-255.4033,-275.79561)"
         id="path146" />
    </clipPath>
    <clipPath
       clipPathUnits="userSpaceOnUse"
       id="clipPath148">
      <path
         d="M 28.346,138.898 H 566.929 V 306.897 H 28.346 Z"
         id="path148" />
    </clipPath>
    <clipPath
       clipPathUnits="userSpaceOnUse"
       id="clipPath150">
      <path
         d="M 28.346,138.898 H 566.929 V 306.897 H 28.346 Z"
         transform="translate(-330.04361,-250.91211)"
         id="path150" />
    </clipPath>
    <clipPath
       clipPathUnits="userSpaceOnUse"
       id="clipPath152">
      <path
         d="M 28.346,138.898 H 566.929 V 306.897 H 28.346 Z"
         transform="translate(-317.60091,-180.1398)"
         id="path152" />
    </clipPath>
    <clipPath
       clipPathUnits="userSpaceOnUse"
       id="clipPath154">
      <path
         d="M 28.346,138.898 H 566.929 V 306.897 H 28.346 Z"
         transform="translate(-317.60091,-182.93421)"
         id="path154" />
    </clipPath>
    <clipPath
       clipPathUnits="userSpaceOnUse"
       id="clipPath156">
      <path
         d="M 28.346,138.898 H 566.929 V 306.897 H 28.346 Z"
         transform="translate(-330.44951,-182.93421)"
         id="path156" />
    </clipPath>
    <clipPath
       clipPathUnits="userSpaceOnUse"
       id="clipPath158">
      <path
         d="M 28.346,138.898 H 566.929 V 306.897 H 28.346 Z"
         transform="translate(-358.58521,-182.93421)"
         id="path158" />
    </clipPath>
    <clipPath
       clipPathUnits="userSpaceOnUse"
       id="clipPath160">
      <path
         d="M 28.346,138.898 H 566.929 V 306.897 H 28.346 Z"
         transform="translate(-370.32921,-195.63291)"
         id="path160" />
    </clipPath>
    <clipPath
       clipPathUnits="userSpaceOnUse"
       id="clipPath162">
      <path
         d="M 28.346,138.898 H 566.929 V 306.897 H 28.346 Z"
         transform="translate(-385.40201,-182.93421)"
         id="path162" />
    </clipPath>
    <clipPath
       clipPathUnits="userSpaceOnUse"
       id="clipPath164">
      <path
         d="M 28.346,138.898 H 566.929 V 306.897 H 28.346 Z"
         transform="translate(-399.33591,-195.45741)"
         id="path164" />
    </clipPath>
    <clipPath
       clipPathUnits="userSpaceOnUse"
       id="clipPath166">
      <path
         d="M 28.346,138.898 H 566.929 V 306.897 H 28.346 Z"
         transform="translate(-405.90141,-182.93421)"
         id="path166" />
    </clipPath>
    <clipPath
       clipPathUnits="userSpaceOnUse"
       id="clipPath168">
      <path
         d="M 28.346,138.898 H 566.929 V 306.897 H 28.346 Z"
         transform="translate(-375.37401,-151.7776)"
         id="path168" />
    </clipPath>
    <clipPath
       clipPathUnits="userSpaceOnUse"
       id="clipPath170">
      <path
         d="M 28.346,138.898 H 566.929 V 306.897 H 28.346 Z"
         transform="translate(-385.18261,-166.3834)"
         id="path170" />
    </clipPath>
    <clipPath
       clipPathUnits="userSpaceOnUse"
       id="clipPath172">
      <path
         d="M 28.346,138.898 H 566.929 V 306.897 H 28.346 Z"
         transform="translate(-396.37811,-159.9142)"
         id="path172" />
    </clipPath>
    <clipPath
       clipPathUnits="userSpaceOnUse"
       id="clipPath174">
      <path
         d="M 28.346,138.898 H 566.929 V 306.897 H 28.346 Z"
         transform="translate(-423.55911,-151.7776)"
         id="path174" />
    </clipPath>
    <clipPath
       clipPathUnits="userSpaceOnUse"
       id="clipPath176">
      <path
         d="M 28.346,138.898 H 566.929 V 306.897 H 28.346 Z"
         transform="translate(-435.23301,-157.632)"
         id="path176" />
    </clipPath>
    <clipPath
       clipPathUnits="userSpaceOnUse"
       id="clipPath178">
      <path
         d="M 28.346,138.898 H 566.929 V 306.897 H 28.346 Z"
         transform="translate(-452.80951,-151.7776)"
         id="path178" />
    </clipPath>
    <clipPath
       clipPathUnits="userSpaceOnUse"
       id="clipPath180">
      <path
         d="M 28.346,138.898 H 566.929 V 306.897 H 28.346 Z"
         transform="translate(-458.54331,-153.0933)"
         id="path180" />
    </clipPath>
    <clipPath
       clipPathUnits="userSpaceOnUse"
       id="clipPath182">
      <path
         d="M 28.346,138.898 H 566.929 V 306.897 H 28.346 Z"
         id="path182" />
    </clipPath>
    <clipPath
       clipPathUnits="userSpaceOnUse"
       id="clipPath184">
      <path
         d="M 28.346,138.898 H 566.929 V 306.897 H 28.346 Z"
         transform="translate(-488.72851,-151.7776)"
         id="path184" />
    </clipPath>
  </defs>
  <g
     inkscape:label="图层 1"
     inkscape:groupmode="layer"
     id="layer1"
     transform="translate(-19.579166,-179.12291)">
    <g
       id="group-MC1"
       transform="matrix(0.26458333,0,0,0.26458333,-18.008142,-9.6106233)">
      <path
         id="path123"
         d="M 0,0 H -12.441 V -12.442 H 0 V -24.883 H 12.442 V -12.442 0 Z"
         style="fill:#bb471f;fill-opacity:1;fill-rule:nonzero;stroke:none"
         transform="matrix(1.3333333,0,0,-1.3333333,373.7128,870.902)" />
      <path
         id="path124"
         d="M 0,0 V -12.442 H -12.437 V -31.101 H 12.442 V 0 Z"
         style="fill:#bb471f;fill-opacity:1;fill-rule:nonzero;stroke:none"
         transform="matrix(1.3333333,0,0,-1.3333333,290.7708,713.3236)" />
      <path
         id="path125"
         d="m 0,0 c -0.506,-1.558 -2.28,-3.553 -6.075,-3.553 -1.819,0 -3.641,0.437 -4.914,1.841 -0.197,0.199 -0.724,0.833 -0.985,1.667 -0.243,0.791 -0.243,1.513 -0.243,3.159 v 9.21 H -9.3 V 2.807 c 0,-0.921 0,-1.251 0.154,-1.712 0.285,-0.919 1.119,-1.841 3.18,-1.841 0.373,0 2.501,0 3.137,1.755 0.176,0.504 0.198,0.92 0.198,1.95 v 9.365 H 0.262 V 3.399 C 0.262,1.622 0.285,0.876 0,0"
         style="fill:#3b3b3a;fill-opacity:1;fill-rule:nonzero;stroke:none"
         transform="matrix(1.3333333,0,0,-1.3333333,158.3516,779.99013)"
         clip-path="url(#clipPath126)" />
      <path
         id="path127"
         d="M 0,0 -6.778,10.856 -6.602,0 h -2.831 v 15.482 h 2.61 L 0.043,4.562 -0.309,15.482 H 2.542 V 0 Z"
         style="fill:#3b3b3a;fill-opacity:1;fill-rule:nonzero;stroke:none"
         transform="matrix(1.3333333,0,0,-1.3333333,176.02627,784.20173)"
         clip-path="url(#clipPath128)" />
      <path
         id="path129"
         d="m 138.08,269.221 h 2.85 v -15.482 h -2.85 z"
         style="fill:#3b3b3a;fill-opacity:1;fill-rule:nonzero;stroke:none"
         transform="matrix(1.3333333,0,0,-1.3333333,0,1122.52)"
         clip-path="url(#clipPath130)" />
      <path
         id="path131"
         d="m 0,0 h -3.904 l -4.563,15.482 h 3.05 L -1.954,3.268 1.423,15.482 h 2.983 z"
         style="fill:#3b3b3a;fill-opacity:1;fill-rule:nonzero;stroke:none"
         transform="matrix(1.3333333,0,0,-1.3333333,201.83253,784.20173)"
         clip-path="url(#clipPath132)" />
      <path
         id="path133"
         d="M 0,0 V 15.482 H 11.01 V 12.896 H 2.852 V 9.255 h 7.477 V 6.754 H 2.852 V 2.61 h 8.707 V 0 Z"
         style="fill:#3b3b3a;fill-opacity:1;fill-rule:nonzero;stroke:none"
         transform="matrix(1.3333333,0,0,-1.3333333,210.2612,784.20173)"
         clip-path="url(#clipPath134)" />
      <path
         id="path135"
         d="m 0,0 c -0.506,0.328 -1.097,0.461 -2.325,0.461 h -2.346 v -4.826 h 1.028 c 1.691,0 2.743,0 3.446,0.373 C 0.24,-3.75 0.964,-3.18 0.964,-1.93 0.964,-1.536 0.921,-0.615 0,0 m 0.986,-12.523 -3.047,5.745 h -2.61 v -5.745 H -7.545 V 2.96 h 6.336 c 0.703,0 2.786,-0.065 4.169,-1.886 0.899,-1.183 0.944,-2.522 0.944,-3.026 0,-0.242 -0.023,-1.009 -0.287,-1.734 C 3.377,-4.32 2.631,-5.659 0.855,-6.208 l 3.444,-6.315 z"
         style="fill:#3b3b3a;fill-opacity:1;fill-rule:nonzero;stroke:none"
         transform="matrix(1.3333333,0,0,-1.3333333,238.69587,767.50453)"
         clip-path="url(#clipPath136)" />
      <path
         id="path137"
         d="m 0,0 c -1.864,-1.579 -4.365,-1.601 -5.066,-1.601 -0.921,0 -3.881,0.043 -6.032,2.302 -0.262,0.285 -0.549,0.658 -0.746,1.009 l 2.435,1.689 c 0.681,-1.01 1.954,-2.325 4.804,-2.325 0.131,0 0.679,0 1.14,0.111 0.33,0.064 1.843,0.482 1.843,1.929 0,0.154 -0.022,0.57 -0.287,0.921 -0.525,0.703 -1.929,0.9 -2.696,1.074 l -1.843,0.418 c -0.789,0.175 -1.646,0.351 -2.346,0.724 -0.725,0.373 -2.214,1.358 -2.214,3.596 0,0.351 0.043,1.36 0.591,2.282 0.701,1.183 2.39,2.543 5.525,2.543 1.384,0 4.101,-0.22 6.253,-3.137 L -1.031,9.759 c -0.482,0.767 -1.579,2.303 -4.013,2.303 -0.153,0 -2.107,0.022 -2.741,-1.185 -0.133,-0.24 -0.176,-0.46 -0.176,-0.7 0,-0.264 0.065,-0.485 0.197,-0.703 0.373,-0.637 1.228,-0.834 2.653,-1.14 L -3.508,7.982 C -2.04,7.654 -0.418,7.215 0.615,6.009 1.052,5.527 1.513,4.824 1.513,3.399 1.513,1.995 1.073,0.921 0,0"
         style="fill:#3b3b3a;fill-opacity:1;fill-rule:nonzero;stroke:none"
         transform="matrix(1.3333333,0,0,-1.3333333,261.63067,782.5932)"
         clip-path="url(#clipPath138)" />
      <path
         id="path139"
         d="m 200.267,269.221 h 2.85 v -15.482 h -2.85 z"
         style="fill:#3b3b3a;fill-opacity:1;fill-rule:nonzero;stroke:none"
         transform="matrix(1.3333333,0,0,-1.3333333,0,1122.52)"
         clip-path="url(#clipPath140)" />
      <path
         id="path141"
         d="M 0,0 V -12.875 H -2.895 V 0 H -7.106 V 2.608 H 4.277 V 0 Z"
         style="fill:#3b3b3a;fill-opacity:1;fill-rule:nonzero;stroke:none"
         transform="matrix(1.3333333,0,0,-1.3333333,283.34253,767.0356)"
         clip-path="url(#clipPath142)" />
      <path
         id="path143"
         d="m 0,0 h -1.952 l 1.161,2.631 h 3.159 z m -5.878,-16.997 v 15.482 h 11.01 v -2.586 h -8.158 v -3.641 h 7.477 v -2.501 h -7.477 v -4.144 h 8.707 v -2.61 z"
         style="fill:#3b3b3a;fill-opacity:1;fill-rule:nonzero;stroke:none"
         transform="matrix(1.3333333,0,0,-1.3333333,299.7856,761.53853)"
         clip-path="url(#clipPath144)" />
      <path
         id="path145"
         d="m 0,0 v -62.199 h -24.883 v 37.319 h -24.879 v -37.321 h 12.437 V -74.64 h 49.766 v 12.441 H 24.877 V 0 Z"
         style="fill:#3b3b3a;fill-opacity:1;fill-rule:nonzero;stroke:none"
         transform="matrix(1.3333333,0,0,-1.3333333,340.53773,754.79253)"
         clip-path="url(#clipPath146)" />
      <path
         id="path147"
         d="m 317.601,201.153 h -24.879 v 12.442 h 24.879 z"
         style="fill:#3b3b3a;fill-opacity:1;fill-rule:nonzero;stroke:none"
         transform="matrix(1.3333333,0,0,-1.3333333,0,1122.52)"
         clip-path="url(#clipPath148)" />
      <path
         id="path149"
         d="M 0,0 V 12.443 H -12.443 V -49.759 H 12.44 V 0 Z"
         style="fill:#bb471f;fill-opacity:1;fill-rule:nonzero;stroke:none"
         transform="matrix(1.3333333,0,0,-1.3333333,440.05813,787.97053)"
         clip-path="url(#clipPath150)" />
      <path
         id="path151"
         d="M 0,0 V -28.801 H 12.443 V -41.242 H 24.882 V 0 Z"
         style="fill:#3b3b3a;fill-opacity:1;fill-rule:nonzero;stroke:none"
         transform="matrix(1.3333333,0,0,-1.3333333,423.46787,882.3336)"
         clip-path="url(#clipPath152)" />
      <path
         id="path153"
         d="M 0,0 V 15.485 H 2.919 V 2.631 H 9.485 V 0 Z"
         style="fill:#3b3b3a;fill-opacity:1;fill-rule:nonzero;stroke:none"
         transform="matrix(1.3333333,0,0,-1.3333333,423.46787,878.60773)"
         clip-path="url(#clipPath154)" />
      <path
         id="path155"
         d="M 0,0 V 15.485 H 11.485 V 12.896 H 2.85 V 9.257 h 7.955 V 6.754 H 2.85 V 2.61 h 9.184 V 0 Z"
         style="fill:#3b3b3a;fill-opacity:1;fill-rule:nonzero;stroke:none"
         transform="matrix(1.3333333,0,0,-1.3333333,440.59933,878.60773)"
         clip-path="url(#clipPath156)" />
      <path
         id="path157"
         d="M 0,0 V 7.042 H -6.647 V 0 h -2.914 v 15.485 h 2.914 V 9.652 H 0 v 5.833 H 2.916 V 0 Z"
         style="fill:#3b3b3a;fill-opacity:1;fill-rule:nonzero;stroke:none"
         transform="matrix(1.3333333,0,0,-1.3333333,478.1136,878.60773)"
         clip-path="url(#clipPath158)" />
      <path
         id="path159"
         d="m 0,0 -2.153,-7.127 h 4.279 z m 3.792,-12.699 -0.9,3.026 h -5.81 l -0.9,-3.026 H -6.93 l 5.24,15.485 h 3.287 l 5.287,-15.485 z"
         style="fill:#3b3b3a;fill-opacity:1;fill-rule:nonzero;stroke:none"
         transform="matrix(1.3333333,0,0,-1.3333333,493.77227,861.67613)"
         clip-path="url(#clipPath160)" />
      <path
         id="path161"
         d="m 0,0 h -3.904 l -4.56,15.485 h 3.046 L -1.955,3.27 1.424,15.485 h 2.982 z"
         style="fill:#3b3b3a;fill-opacity:1;fill-rule:nonzero;stroke:none"
         transform="matrix(1.3333333,0,0,-1.3333333,513.86933,878.60773)"
         clip-path="url(#clipPath162)" />
      <path
         id="path163"
         d="m 0,0 c -0.507,0.33 -1.097,0.463 -2.324,0.463 h -2.348 v -4.826 h 1.029 c 1.688,0 2.743,0 3.446,0.373 0.436,0.24 1.16,0.81 1.16,2.061 C 0.963,-1.535 0.922,-0.613 0,0 m 0.985,-12.523 -3.048,5.747 h -2.609 v -5.747 H -7.544 V 2.961 h 6.335 c 0.702,0 2.785,-0.064 4.169,-1.885 0.9,-1.183 0.944,-2.525 0.944,-3.026 0,-0.244 -0.022,-1.012 -0.288,-1.736 C 3.377,-4.32 2.631,-5.657 0.851,-6.206 l 3.448,-6.317 z"
         style="fill:#3b3b3a;fill-opacity:1;fill-rule:nonzero;stroke:none"
         transform="matrix(1.3333333,0,0,-1.3333333,532.44787,861.91013)"
         clip-path="url(#clipPath164)" />
      <path
         id="path165"
         d="M 0,0 V 15.485 H 11.009 V 12.896 H 2.85 V 9.257 h 7.479 V 6.754 H 2.85 V 2.61 h 8.707 V 0 Z"
         style="fill:#3b3b3a;fill-opacity:1;fill-rule:nonzero;stroke:none"
         transform="matrix(1.3333333,0,0,-1.3333333,541.20187,878.60773)"
         clip-path="url(#clipPath166)" />
      <path
         id="path167"
         d="m 0,0 h -1.448 l -9.105,13.378 V 0 h -1.421 v 15.482 h 1.421 L -1.317,2.237 -1.448,15.482 H 0 Z"
         style="fill:#bb471f;fill-opacity:1;fill-rule:nonzero;stroke:none"
         transform="matrix(1.3333333,0,0,-1.3333333,500.49867,920.14987)"
         clip-path="url(#clipPath168)" />
      <path
         id="path169"
         d="m 0,0 c -3.945,0 -5.154,-3.904 -5.154,-6.866 0,-2.871 1.143,-6.818 5.09,-6.818 4.78,0 5.109,5.657 5.109,6.906 C 5.067,-3.971 3.928,0 0,0 M 4.652,-12.984 C 3.138,-14.76 1.275,-15 0,-15 c -1.907,0 -3.487,0.591 -4.755,2.104 -1.097,1.273 -1.955,3.311 -1.955,6.054 0,4.275 2.104,8.113 6.71,8.113 5.13,0 6.644,-4.517 6.622,-8.025 -0.021,-2.37 -0.724,-4.76 -1.97,-6.23"
         style="fill:#bb471f;fill-opacity:1;fill-rule:nonzero;stroke:none"
         transform="matrix(1.3333333,0,0,-1.3333333,513.5768,900.67547)"
         clip-path="url(#clipPath170)" />
      <path
         id="path171"
         d="m 0,0 h 3.638 c 1.007,0 1.951,0.021 2.611,0.152 1.646,0.33 2.236,1.579 2.236,2.831 0,1.513 -0.746,2.653 -2.258,2.959 C 5.791,6.03 5.589,6.03 3.638,6.051 H 0 Z M 10.373,-8.137 H 8.529 L 3.638,-1.273 H 0 V -8.137 H -1.47 V 7.367 H 2.872 C 5.567,7.346 6.249,7.346 7.213,7.018 9.758,6.118 9.934,3.684 9.934,2.916 9.934,1.294 9.232,0.394 8.768,-0.067 7.649,-1.119 6.184,-1.206 5.35,-1.273 Z"
         style="fill:#bb471f;fill-opacity:1;fill-rule:nonzero;stroke:none"
         transform="matrix(1.3333333,0,0,-1.3333333,528.50413,909.30107)"
         clip-path="url(#clipPath172)" />
      <path
         id="path173"
         d="M 0,0 H -1.428 L -1.317,13.136 -6.381,0 H -7.393 L -12.545,13.136 -12.369,0 h -1.427 v 15.482 h 1.736 L -6.82,2.346 -1.821,15.482 H 0 Z"
         style="fill:#bb471f;fill-opacity:1;fill-rule:nonzero;stroke:none"
         transform="matrix(1.3333333,0,0,-1.3333333,564.74547,920.14987)"
         clip-path="url(#clipPath174)" />
      <path
         id="path175"
         d="M 0,0 -2.982,7.896 -6.008,0 Z M 3.818,-5.854 H 2.216 l -1.775,4.671 h -6.93 l -1.757,-4.671 h -1.646 l 6.317,15.482 h 1.231 z"
         style="fill:#bb471f;fill-opacity:1;fill-rule:nonzero;stroke:none"
         transform="matrix(1.3333333,0,0,-1.3333333,580.31067,912.344)"
         clip-path="url(#clipPath176)" />
      <path
         id="path177"
         d="m 0,0 h -1.448 l -9.104,13.378 V 0 h -1.422 v 15.482 h 1.422 L -1.317,2.237 -1.448,15.482 H 0 Z"
         style="fill:#bb471f;fill-opacity:1;fill-rule:nonzero;stroke:none"
         transform="matrix(1.3333333,0,0,-1.3333333,603.746,920.14987)"
         clip-path="url(#clipPath178)" />
      <path
         id="path179"
         d="m 0,0 h 2.324 c 1.272,0 3.046,-0.022 4.079,0.461 1.492,0.679 2.829,2.85 2.829,5.942 0,2.655 -1.054,5.199 -2.941,6.032 -0.851,0.373 -1.687,0.373 -3.594,0.373 H 0 Z M -1.492,-1.316 V 14.167 H 2.631 C 4.277,14.145 5.701,14.145 6.82,13.706 9.034,12.829 10.702,10.089 10.702,6.469 10.702,3.574 9.648,1.14 7.937,-0.197 6.537,-1.294 5.13,-1.316 2.521,-1.316 Z"
         style="fill:#bb471f;fill-opacity:1;fill-rule:nonzero;stroke:none"
         transform="matrix(1.3333333,0,0,-1.3333333,611.39107,918.3956)"
         clip-path="url(#clipPath180)" />
      <path
         id="path181"
         d="m 473.836,151.778 h -1.47 v 15.482 h 1.47 z"
         style="fill:#bb471f;fill-opacity:1;fill-rule:nonzero;stroke:none"
         transform="matrix(1.3333333,0,0,-1.3333333,0,1122.52)"
         clip-path="url(#clipPath182)" />
      <path
         id="path183"
         d="M 0,0 H -10.658 V 15.482 H -0.549 V 14.124 H -9.19 V 8.619 h 7.832 V 7.258 H -9.19 v -5.9 H 0 Z"
         style="fill:#bb471f;fill-opacity:1;fill-rule:nonzero;stroke:none"
         transform="matrix(1.3333333,0,0,-1.3333333,651.638,920.14987)"
         clip-path="url(#clipPath184)" />
    </g>
  </g>
</svg>
